<svg id="Warstwa_1" data-name="Warstwa 1" xmlns="http://www.w3.org/2000/svg" viewBox="0 0 921 125"><defs><style>.cls-1{fill:#fff;}.cls-2{fill:#27ae60;}.cls-3{fill:#273c75;}</style></defs><title>skinflint-logo</title><path class="cls-1" d="M47,125a97,97,0,0,1-22.35-2.57,60.63,60.63,0,0,1-18.93-7.71,10.26,10.26,0,0,1-4.8-6.34,11.18,11.18,0,0,1,.6-7.11,8.32,8.32,0,0,1,4.62-4.62c2.12-.86,4.54-.43,7.28,1.28a58.56,58.56,0,0,0,15.94,6.51A73.93,73.93,0,0,0,47,106.5q13.53,0,19.7-4.54a14,14,0,0,0,6.17-11.74A11.31,11.31,0,0,0,68.5,80.8q-4.36-3.42-15-5.65l-18.84-4Q2.45,64.36,2.46,38.14a33,33,0,0,1,6-19.7,38.94,38.94,0,0,1,16.61-13A60.94,60.94,0,0,1,49.57.79,72.7,72.7,0,0,1,69.1,3.36,56.75,56.75,0,0,1,85.72,10.9a9.32,9.32,0,0,1,4.11,5.91A9.78,9.78,0,0,1,89,23.32a8.16,8.16,0,0,1-4.89,4.11c-2.22.75-4.82.26-7.79-1.45a48.85,48.85,0,0,0-12.85-5.14A60.74,60.74,0,0,0,49.4,19.3q-11.82,0-18.5,5a15.49,15.49,0,0,0-6.68,13,12.59,12.59,0,0,0,4.11,9.86q4.11,3.68,14.05,5.73l18.67,3.94q17,3.6,25.27,11.31t8.31,20.56a32,32,0,0,1-5.83,19Q83,115.92,72.27,120.46T47,125Z"/><path class="cls-1" d="M122,124.66q-10.62,0-10.62-11V11.93q0-10.8,10.62-10.79,10.8,0,10.79,10.79V75.15h.35l28.26-29.81a55,55,0,0,1,6-5.32,11.68,11.68,0,0,1,7-1.88q4.46,0,6.77,2.31A7.61,7.61,0,0,1,183.54,46c0,2.17-1,4.34-3.08,6.51L154.76,79.6l28.61,30.84q3.09,3.25,2.83,6.59a7.58,7.58,0,0,1-2.83,5.48,9.81,9.81,0,0,1-6.51,2.15,13.51,13.51,0,0,1-7.62-1.89,34.92,34.92,0,0,1-6.25-5.65L133.18,85.94h-.35v27.75Q132.83,124.66,122,124.66Z"/><path class="cls-1" d="M213.87,22.38q-6,0-9.34-3a10.59,10.59,0,0,1-3.34-8.31q0-5.47,3.34-8.39t9.34-2.91q12.67,0,12.67,11.3T213.87,22.38Zm0,102.11q-5.15,0-7.88-3.09c-1.83-2.05-2.75-4.91-2.75-8.56V50q0-11.64,10.63-11.65,10.78,0,10.79,11.65v62.88c0,3.65-.92,6.51-2.74,8.56S217.41,124.49,213.87,124.49Z"/><path class="cls-1" d="M257.55,124.66q-10.62,0-10.62-11V48.93q0-10.78,10.45-10.79t10.45,10.79v3.6a28.41,28.41,0,0,1,11.56-11,35.13,35.13,0,0,1,16.37-3.77q29.63,0,29.63,34.43v41.46q0,11-10.62,11-10.78,0-10.79-11V73.26q0-9.77-3.69-14.22T288.9,54.59q-9.42,0-15,5.91t-5.57,15.67v37.52Q268.34,124.66,257.55,124.66Z"/><path class="cls-1" d="M363.59,124.66q-10.79,0-10.79-11V55.62h-7.88q-8.57,0-8.56-8.06t8.56-8.05h7.88v-.17q0-17.64,8.91-26.47t25.7-10.36L393.23,2q4.45-.34,6.51,1.89a8,8,0,0,1,2.15,5.39,9.34,9.34,0,0,1-1.63,5.66,6.55,6.55,0,0,1-5,2.82l-2.4.18q-9.76.67-14.22,5t-4.45,13v3.6h14.56q8.57,0,8.56,8.05t-8.56,8.06H374.22v58.07Q374.22,124.66,363.59,124.66Zm74.53.34q-28.62,0-28.61-32v-81q0-10.8,10.62-10.79,10.8,0,10.79,10.79v80q0,15.41,12.85,15.41c.91,0,1.77,0,2.57-.08s1.6-.14,2.4-.26c1.6-.23,2.68.2,3.26,1.29s.85,3.28.85,6.59a11.32,11.32,0,0,1-1.71,6.68c-1.14,1.6-3,2.57-5.65,2.92A52.52,52.52,0,0,1,438.12,125Z"/><path class="cls-1" d="M474.78,22.38q-6,0-9.33-3a10.59,10.59,0,0,1-3.35-8.31q0-5.47,3.35-8.39t9.33-2.91q12.68,0,12.68,11.3T474.78,22.38Zm0,102.11q-5.13,0-7.88-3.09c-1.83-2.05-2.74-4.91-2.74-8.56V50q0-11.64,10.62-11.65,10.8,0,10.8,11.65v62.88c0,3.65-.92,6.51-2.75,8.56S478.32,124.49,474.78,124.49Z"/><path class="cls-1" d="M518.47,124.66q-10.64,0-10.63-11V48.93q0-10.78,10.45-10.79t10.45,10.79v3.6a28.44,28.44,0,0,1,11.57-11,35.06,35.06,0,0,1,16.36-3.77q29.64,0,29.64,34.43v41.46q0,11-10.62,11-10.8,0-10.8-11V73.26q0-9.77-3.68-14.22t-11.39-4.45q-9.44,0-15,5.91t-5.57,15.67v37.52Q529.26,124.66,518.47,124.66Z"/><path class="cls-1" d="M646.44,125q-33.24,0-33.24-32.89V55.62h-8.9q-8.58,0-8.57-8.06t8.57-8.05h8.9V23.92q0-10.79,10.8-10.79,10.62,0,10.62,10.79V39.51h18.16q8.57,0,8.56,8.05t-8.56,8.06H634.62V90.91q0,8.22,3.6,12.33t11.65,4.11a23.22,23.22,0,0,0,5.14-.51,33.25,33.25,0,0,1,3.94-.69,4,4,0,0,1,3.42,1.29c.92,1,1.37,2.94,1.37,5.91a15.62,15.62,0,0,1-1.11,6.08,6.49,6.49,0,0,1-4,3.69,47.48,47.48,0,0,1-5.82,1.28A39.1,39.1,0,0,1,646.44,125Z"/><rect class="cls-2" x="719.85" y="-0.12" width="201.24" height="124.99"/><rect class="cls-3" x="724.38" y="3.79" width="191.63" height="117.17"/><rect class="cls-2" x="730.63" y="9" width="179.13" height="106"/><path class="cls-3" d="M821.17,103.9a4.14,4.14,0,0,1-3.14-1.27,4.25,4.25,0,0,1-1.23-3.09V93.61a39.15,39.15,0,0,1-9.46-1.7,41.41,41.41,0,0,1-7.11-3,4.79,4.79,0,0,1-2.48-3.06,5.85,5.85,0,0,1,.21-3.66,4.23,4.23,0,0,1,2.36-2.44,4.35,4.35,0,0,1,3.92.61A33.76,33.76,0,0,0,810.66,83a31.76,31.76,0,0,0,9.55,1.26q6.54,0,9.42-2.31a7.13,7.13,0,0,0,2.87-5.8,6.07,6.07,0,0,0-2-4.71q-2-1.83-7.15-3l-9.25-2q-15.79-3.41-15.79-16.57a16.77,16.77,0,0,1,5-12.35q5-5,13.47-6.06V25.31a4.29,4.29,0,0,1,1.23-3.1,4.39,4.39,0,0,1,7.5,3.1v6.1a34.31,34.31,0,0,1,7.37,1.66,22.33,22.33,0,0,1,6.76,3.58A4.63,4.63,0,0,1,841,42.8a4.07,4.07,0,0,1-2.53,1.92,5.19,5.19,0,0,1-4-.83,24.87,24.87,0,0,0-5.67-2.4,27,27,0,0,0-7.5-.92q-5.58,0-8.77,2.49a7.86,7.86,0,0,0-3.18,6.5,6.19,6.19,0,0,0,1.92,4.75q1.92,1.78,6.54,2.84l9.51,2.09q8.37,1.83,12.3,5.8a14.21,14.21,0,0,1,3.92,10.42,15.66,15.66,0,0,1-5,12,23.87,23.87,0,0,1-13,5.88v6.2a4.29,4.29,0,0,1-1.22,3.09A4.17,4.17,0,0,1,821.17,103.9Z"/></svg>